<svg xmlns="http://www.w3.org/2000/svg" viewBox="0 0 24 24">
  <path d="M7.83 16.17a6.48 6.48 0 0 1-.64-.75 1 1 0 0 1 1.62-1.18 4.22 4.22 0 0 0 6.45.51l5.5-5.5a4.26 4.26 0 0 0-6.01-6L13.69 4.3a1 1 0 1 1-1.41-1.41l1.05-1.06a6.26 6.26 0 0 1 8.84 8.84l-5.5 5.5a6.2 6.2 0 0 1-8.84 0ZM6.25 24a6.2 6.2 0 0 0 4.42-1.83l1.06-1.06a1 1 0 1 0-1.41-1.41l-1.06 1.05a4.22 4.22 0 0 1-6.01 0 4.22 4.22 0 0 1 0-6l5.5-5.5a4.22 4.22 0 0 1 6 0c.17.16.31.33.44.5a1 1 0 1 0 1.62-1.17 6.25 6.25 0 0 0-9.48-.75l-5.5 5.5a6.2 6.2 0 0 0 0 8.84A6.2 6.2 0 0 0 6.25 24Z"/>
</svg>
